<svg width="251" height="73" viewBox="0 0 251 73" fill="none" xmlns="http://www.w3.org/2000/svg">
<path d="M40.3 62.1V72H2.6V62.1H16.3V11.5C15.7667 12.3 14.8667 13.2 13.6 14.2C12.4 15.1333 11.0333 16.0667 9.5 17C7.96667 17.8667 6.36667 18.6 4.7 19.2C3.1 19.8 1.63333 20.1 0.3 20.1V9.89999C2.1 9.89999 3.9 9.43333 5.7 8.49999C7.56667 7.56666 9.3 6.49999 10.9 5.29999C12.5 4.03333 13.7667 2.9 14.7 1.9C15.7 0.899997 16.2333 0.366665 16.3 0.299999H27.6V62.1H40.3ZM76.8844 72V54.8H45.1844V45L80.2844 0.999996H87.8844V44.9H96.6844V54.8H87.8844V72H76.8844ZM56.3844 44.9H78.0844V17.7L56.3844 44.9ZM106.69 72V59.2H115.79V72H106.69ZM148.679 73C143.546 73 138.946 71.8667 134.879 69.6C130.879 67.2667 127.779 64.1 125.579 60.1L132.179 53.8C134.046 56.6667 136.446 58.9667 139.379 60.7C142.312 62.3667 145.446 63.2 148.779 63.2C151.512 63.2 153.946 62.6333 156.079 61.5C158.212 60.3 159.879 58.6667 161.079 56.6C162.346 54.5333 162.979 52.1333 162.979 49.4C162.979 46.7333 162.379 44.4 161.179 42.4C160.046 40.3333 158.446 38.7333 156.379 37.6C154.379 36.4667 152.112 35.9 149.579 35.9C147.046 35.9 144.646 36.4667 142.379 37.6C140.179 38.7333 138.412 40.3333 137.079 42.4H127.279L135.379 0.999996H170.079V11.1H143.379L139.779 30.4C140.979 29.2 142.512 28.2333 144.379 27.5C146.312 26.7667 148.512 26.4 150.979 26.4C155.446 26.4 159.412 27.3667 162.879 29.3C166.412 31.2333 169.179 33.9 171.179 37.3C173.246 40.7 174.279 44.6333 174.279 49.1C174.279 53.8333 173.146 58 170.879 61.6C168.612 65.1333 165.546 67.9333 161.679 70C157.879 72 153.546 73 148.679 73ZM197.827 29.7C194.893 29.7 192.193 29.0333 189.727 27.7C187.327 26.3667 185.393 24.6 183.927 22.4C182.527 20.1333 181.827 17.6333 181.827 14.9C181.827 12.1 182.527 9.6 183.927 7.4C185.393 5.13333 187.327 3.33333 189.727 2C192.193 0.666663 194.893 -2.86102e-06 197.827 -2.86102e-06C200.76 -2.86102e-06 203.427 0.666663 205.827 2C208.227 3.33333 210.127 5.13333 211.527 7.4C212.927 9.6 213.627 12.0667 213.627 14.8C213.627 17.5333 212.927 20.0333 211.527 22.3C210.127 24.5667 208.227 26.3667 205.827 27.7C203.427 29.0333 200.76 29.7 197.827 29.7ZM197.727 24C199.26 24 200.627 23.6 201.827 22.8C203.093 21.9333 204.06 20.8 204.727 19.4C205.46 18 205.827 16.5 205.827 14.9C205.827 13.1667 205.46 11.6 204.727 10.2C203.993 8.8 202.993 7.7 201.727 6.9C200.527 6.1 199.227 5.7 197.827 5.7C196.293 5.7 194.893 6.13333 193.627 7C192.427 7.8 191.46 8.9 190.727 10.3C189.993 11.7 189.627 13.2 189.627 14.8C189.627 16.5333 189.993 18.1 190.727 19.5C191.527 20.8333 192.527 21.9333 193.727 22.8C194.993 23.6 196.327 24 197.727 24ZM234.527 73C231.593 73 228.927 72.3333 226.527 71C224.127 69.6667 222.193 67.8667 220.727 65.6C219.327 63.3333 218.627 60.8333 218.627 58.1C218.627 55.3667 219.327 52.9 220.727 50.7C222.193 48.4333 224.127 46.6333 226.527 45.3C228.927 43.9667 231.593 43.3 234.527 43.3C237.527 43.3 240.227 43.9667 242.627 45.3C245.027 46.5667 246.927 48.3333 248.327 50.6C249.727 52.8667 250.427 55.3667 250.427 58.1C250.427 60.8333 249.727 63.3333 248.327 65.6C246.927 67.8667 245.027 69.6667 242.627 71C240.227 72.3333 237.527 73 234.527 73ZM234.527 67.3C236.06 67.3 237.427 66.8667 238.627 66C239.893 65.1333 240.86 64.0333 241.527 62.7C242.26 61.3 242.627 59.8 242.627 58.2C242.627 56.4667 242.26 54.9 241.527 53.5C240.793 52.1 239.793 51 238.527 50.2C237.327 49.4 235.993 49 234.527 49C233.06 49 231.693 49.4333 230.427 50.3C229.227 51.1 228.26 52.2 227.527 53.6C226.793 55 226.427 56.5 226.427 58.1C226.427 59.7667 226.793 61.3 227.527 62.7C228.327 64.1 229.327 65.2333 230.527 66.1C231.727 66.9 233.06 67.3 234.527 67.3ZM186.327 68L214.427 34.7L240.827 0.399998L246.027 4.9L218.427 37.8L191.427 72.6L186.327 68Z" fill="black" fill-opacity="0.32"/>
</svg>
