<svg width="48" height="48" viewBox="0 0 48 48" fill="none" xmlns="http://www.w3.org/2000/svg">
<rect width="48" height="48" rx="24" fill="#0098E3"/>
<path d="M25.1798 32.4001C16.1599 32.4001 11.0151 26.0938 10.8008 15.6001H15.319C15.4674 23.3022 18.7983 26.5647 21.4366 27.2373V15.6001H25.691V22.2427C28.2963 21.9569 31.0336 18.9298 31.9571 15.6001H36.2114C35.8634 17.327 35.1698 18.9621 34.1739 20.4031C33.178 21.8441 31.9013 23.0601 30.4235 23.9749C32.073 24.8108 33.53 25.9939 34.6982 27.4462C35.8664 28.8985 36.7194 30.5869 37.2008 32.4001H32.5177C32.0856 30.8252 31.2073 29.4155 29.9928 28.3475C28.7784 27.2795 27.282 26.6008 25.691 26.3965V32.4001H25.1798V32.4001Z" fill="white"/>
</svg>
